<svg xmlns="http://www.w3.org/2000/svg" width="48" height="48" viewBox="0 0 48 48" fill="none">
  <path d="M40.3579 12.581L26.3629 6.03999C25.6027 5.68466 24.7737 5.50042 23.9345 5.50024C23.0953 5.50007 22.2663 5.68398 21.5059 6.03899L7.64293 12.509C7.24722 12.6936 6.91239 12.9873 6.67777 13.3556C6.44315 13.7239 6.31846 14.1515 6.31836 14.5882C6.31825 15.0248 6.44273 15.4525 6.67718 15.8209C6.91162 16.1893 7.2463 16.4832 7.64193 16.668L21.6369 23.209C22.3971 23.5645 23.226 23.7489 24.0652 23.7492C24.9044 23.7496 25.7335 23.5659 26.4939 23.211L40.3569 16.74C40.7526 16.5553 41.0875 16.2616 41.3221 15.8934C41.5567 15.5251 41.6814 15.0975 41.6815 14.6608C41.6816 14.2241 41.5571 13.7965 41.3227 13.4281C41.0882 13.0597 40.7536 12.7658 40.3579 12.581Z" stroke="white" stroke-linecap="round" stroke-linejoin="round"/>
  <path d="M13.227 19.2781L7.64303 21.8841C7.24703 22.0686 6.91194 22.3623 6.67711 22.7307C6.44229 23.0991 6.31749 23.5269 6.31738 23.9638C6.31728 24.4006 6.44187 24.8285 6.67652 25.197C6.91117 25.5655 7.24612 25.8594 7.64203 26.0441L21.637 32.5841C22.3972 32.9396 23.2261 33.124 24.0653 33.1243C24.9045 33.1247 25.7336 32.9409 26.494 32.5861L40.357 26.1161C40.7527 25.9314 41.0876 25.6377 41.3222 25.2694C41.5568 24.9011 41.6815 24.4736 41.6816 24.0369C41.6817 23.6002 41.5572 23.1726 41.3228 22.8042C41.0883 22.4358 40.7537 22.1419 40.358 21.9571L34.773 19.3471" stroke="white" stroke-linecap="round" stroke-linejoin="round"/>
  <path d="M13.227 28.6541L7.64303 31.2601C7.24703 31.4446 6.91194 31.7383 6.67711 32.1067C6.44229 32.4751 6.31749 32.9029 6.31738 33.3397C6.31728 33.7766 6.44187 34.2044 6.67652 34.5729C6.91117 34.9415 7.24612 35.2353 7.64203 35.4201L21.637 41.9601C22.3973 42.3154 23.2262 42.4996 24.0654 42.4998C24.9046 42.5 25.7336 42.3161 26.494 41.9611L40.357 35.4911C40.7527 35.3064 41.0876 35.0127 41.3222 34.6444C41.5568 34.2761 41.6815 33.8485 41.6816 33.4119C41.6817 32.9752 41.5572 32.5476 41.3228 32.1792C41.0883 31.8108 40.7537 31.5169 40.358 31.3321L34.773 28.7221" stroke="white" stroke-linecap="round" stroke-linejoin="round"/>
</svg>